# Blender 4.2.3 LTS
# www.blender.org
mtllib hook.mtl
o lego_finger_hand
v 0.017206 -0.038325 0.049198
v 0.007734 0.049391 0.049847
v -0.001790 0.048374 0.050590
v 0.007614 -0.038713 0.049946
v 0.004746 -0.042784 0.037553
v 0.003145 -0.042449 0.045434
v -0.002448 -0.042457 0.035938
v -0.004721 -0.041814 0.043690
v -0.009104 -0.041759 0.032993
v -0.012933 -0.040875 0.040250
v -0.015093 -0.040997 0.028786
v -0.020387 -0.039535 0.035317
v -0.020066 -0.040239 0.023466
v -0.026913 -0.037905 0.029007
v -0.023787 -0.039697 0.017295
v -0.032123 -0.035869 0.021853
v -0.026555 -0.039301 0.010513
v -0.035663 -0.034734 0.013360
v -0.028158 -0.038864 -0.000198
v -0.037324 -0.034702 0.004070
v -0.037137 -0.034630 -0.004924
v -0.026190 -0.038662 -0.010953
v -0.035211 -0.034349 -0.013837
v -0.023350 -0.039045 -0.017588
v -0.031014 -0.035460 -0.022534
v -0.019280 -0.039814 -0.023640
v -0.025634 -0.037392 -0.029466
v -0.013975 -0.040445 -0.028841
v -0.018801 -0.038911 -0.035652
v 0.038560 -0.024825 0.017189
v 0.046876 -0.024664 0.017290
v 0.044284 -0.028470 0.024508
v 0.037537 -0.031305 0.020246
v 0.034329 -0.025370 0.017971
v 0.027012 0.051582 0.018148
v 0.040420 0.053024 0.015640
v 0.047797 -0.018081 0.013429
v 0.043370 -0.029904 0.026669
v 0.033382 -0.036491 0.027123
v 0.037585 -0.034914 0.034388
v 0.026848 -0.040124 0.032929
v 0.030706 -0.038450 0.039923
v -0.032508 -0.031307 -0.027834
v -0.040725 0.044794 -0.027271
v -0.034513 0.045506 -0.034637
v -0.026011 -0.033232 -0.035220
v -0.002068 -0.037889 0.048801
v -0.011275 0.047375 0.049432
v -0.020357 0.046432 0.046416
v -0.011334 -0.037121 0.045798
v 0.019597 -0.041924 0.036301
v 0.021745 -0.041198 0.043874
v 0.012032 -0.042623 0.037674
v 0.012408 -0.042557 0.045679
v -0.040887 -0.029218 0.009177
v -0.048758 0.043677 0.009716
v -0.049497 0.043667 0.000041
v -0.041626 -0.029231 -0.000498
v -0.048364 0.043856 -0.009592
v -0.040493 -0.029038 -0.010131
v 0.014866 -0.038504 0.033598
v 0.005195 0.049213 0.034218
v 0.012161 0.049889 0.032535
v 0.021832 -0.037787 0.031378
v -0.010576 -0.038168 0.028021
v -0.019732 0.046625 0.028648
v -0.014075 0.047203 0.031878
v -0.004815 -0.038552 0.031244
v -0.018588 0.047145 -0.027218
v -0.023690 0.046574 -0.023169
v -0.014652 -0.037128 -0.023796
v -0.009319 -0.037608 -0.027543
v -0.027909 0.046090 -0.018166
v -0.031085 0.045712 -0.012423
v -0.022227 -0.036322 -0.013030
v -0.018952 -0.036857 -0.018780
v -0.028671 0.045743 0.019176
v -0.024661 0.046132 0.024359
v -0.015622 -0.037572 0.023740
v -0.019689 -0.037444 0.018561
v -0.033097 0.045454 -0.006160
v -0.024252 -0.036459 -0.006765
v -0.033866 0.045325 0.000383
v -0.025021 -0.036589 -0.000223
v -0.033364 0.045332 0.006953
v -0.031610 0.045473 0.013299
v -0.022653 -0.037482 0.012685
v -0.024519 -0.036581 0.006347
v -0.012928 0.046145 -0.029418
v 0.018638 0.050519 0.029169
v 0.027992 -0.035746 0.027203
v 0.032449 -0.031208 0.021557
v 0.023719 0.051092 0.024145
v 0.033562 -0.028834 0.019042
v 0.007983 -0.038950 0.034069
v -0.001466 0.048522 0.034713
v -0.007907 0.047843 0.033927
v 0.001487 -0.039161 0.033283
v 0.048984 -0.021424 0.022773
v 0.041022 0.052876 0.025357
v 0.034951 0.052163 0.034809
v 0.043569 -0.026596 0.033225
v -0.018887 0.046129 -0.044528
v -0.018227 -0.034949 -0.041231
v -0.027005 0.046347 -0.040630
v -0.018502 0.051047 -0.040166
v -0.025332 0.050370 -0.037282
v -0.032243 0.049597 -0.031766
v -0.038520 0.048877 -0.024226
v -0.032007 0.049537 -0.019659
v -0.024333 0.050431 -0.028442
v -0.014979 0.051203 -0.033154
v -0.037532 -0.028648 -0.019353
v -0.045402 0.044237 -0.018814
v -0.038306 -0.029000 0.018520
v -0.046176 0.043884 0.019059
v -0.033631 -0.031819 0.027150
v -0.041848 0.044282 0.027713
v -0.027441 -0.033883 0.034761
v -0.035943 0.044855 0.035344
v -0.019908 -0.035715 0.041058
v -0.028686 0.045581 0.041659
v -0.037166 0.048903 -0.007691
v -0.044738 0.048115 -0.009871
v -0.046035 0.047904 0.000154
v -0.044766 0.047952 0.012696
v -0.037081 0.048652 0.028758
v -0.026879 0.049666 0.038462
v -0.015908 0.050792 0.044365
v 0.001522 0.052609 0.046826
v 0.015462 0.054089 0.043475
v 0.024598 0.054951 0.038832
v 0.032224 0.055724 0.031779
v 0.038272 0.056609 0.020881
v 0.029517 0.055599 0.021676
v 0.026354 0.055209 0.026548
v -0.038152 0.048707 0.004681
v 0.020437 0.054548 0.032332
v -0.035634 0.048905 0.014755
v 0.013051 0.053838 0.036067
v -0.029967 0.049431 0.024943
v 0.001599 0.052695 0.038704
v -0.018799 0.050551 0.034323
v -0.009155 0.051553 0.037799
v 0.026535 -0.035587 0.046431
v 0.017008 0.050387 0.047138
v 0.035807 -0.032193 0.041071
v 0.026601 0.051323 0.042212
v 0.050503 -0.018321 0.016857
v 0.043058 0.053208 0.018984
v -0.010995 0.005094 -0.028463
vn 0.0777 0.0010 0.9970
vn 0.0227 -0.8877 -0.4598
vn 0.6042 -0.4160 -0.6796
vn -0.1823 -0.0151 -0.9831
vn -0.3179 -0.0035 -0.9481
vn 0.5261 -0.7940 -0.3046
vn -0.7585 -0.0771 -0.6471
vn -0.3111 -0.0406 0.9495
vn -0.9913 -0.1076 0.0758
vn -0.9873 -0.1057 -0.1182
vn -0.2331 -0.0188 -0.9723
vn -0.3017 -0.0207 -0.9532
vn 0.4905 0.0594 -0.8694
vn 0.6163 0.0607 0.7852
vn 0.5775 0.0600 0.8142
vn 0.8690 0.0902 0.4865
vn 0.7844 0.0892 -0.6138
vn 0.9461 0.0999 0.3080
vn 0.9873 0.1057 0.1182
vn 0.9579 0.1054 -0.2671
vn 0.7585 0.0771 0.6471
vn 0.7590 0.0771 0.6465
vn 0.9913 0.1076 -0.0758
vn 0.8882 0.0992 -0.4487
vn 0.6503 0.0758 -0.7559
vn -0.4577 -0.0388 -0.8882
vn -0.5513 -0.0408 -0.8333
vn -0.8712 -0.0772 -0.4848
vn -0.8827 -0.0770 -0.4636
vn -0.6985 -0.0595 -0.7131
vn -0.7594 -0.0602 -0.6478
vn -0.7000 -0.0649 -0.7112
vn -0.0741 -0.0007 -0.9972
vn -0.0682 -0.0005 -0.9977
vn 0.3111 0.0406 -0.9495
vn 0.1191 0.0202 -0.9927
vn 0.1194 0.0202 -0.9926
vn 0.8368 0.0708 0.5429
vn 0.8669 0.0850 0.4912
vn -0.4334 -0.0401 -0.9003
vn -0.6185 -0.0610 -0.7834
vn -0.0844 0.9959 0.0339
vn -0.1065 0.9943 0.0082
vn -0.0956 0.9953 0.0154
vn -0.1096 0.9940 -0.0023
vn -0.0745 0.9971 0.0153
vn -0.8690 -0.0902 -0.4865
vn -0.9461 -0.0999 -0.3080
vn -0.9579 -0.1054 0.2671
vn -0.8882 -0.0992 0.4487
vn -0.7844 -0.0892 0.6138
vn -0.6503 -0.0758 0.7559
vn -0.4905 -0.0594 0.8694
vn -0.1191 -0.0202 0.9927
vn -0.1064 0.9943 0.0080
vn 0.3536 0.0362 0.9347
vn -0.0853 0.9962 0.0170
vn -0.1130 0.9934 0.0179
vn -0.1100 0.9938 -0.0187
vn -0.1045 0.9945 0.0054
vn -0.1047 0.9945 0.0068
vn -0.1056 0.9944 0.0073
vn -0.1055 0.9944 0.0074
vn -0.1002 0.9949 0.0145
vn -0.0987 0.9950 0.0128
vn -0.1051 0.9944 0.0067
vn -0.0991 0.9951 0.0038
vn -0.0835 0.9962 0.0243
vn -0.1055 0.9944 0.0070
vn -0.1052 0.9944 0.0071
vn -0.0972 0.9952 0.0095
vn -0.1054 0.9944 0.0067
vn -0.1063 0.9943 0.0094
vn -0.1069 0.9942 0.0101
vn -0.1058 0.9943 0.0084
vn 0.2781 0.0229 0.9603
vn 0.4535 0.0378 0.8904
vn 0.4871 0.0468 0.8721
vn 0.6591 0.0570 0.7499
vn 0.6855 0.0657 0.7251
vn 0.9474 0.0895 0.3073
vn 0.9519 0.0918 0.2925
vn -0.0261 -0.7571 0.6527
vn -0.2048 -0.7220 0.6609
vn -0.3321 -0.7341 0.5923
vn -0.4701 -0.7162 0.5158
vn -0.5855 -0.6887 0.4277
vn -0.6840 -0.6603 0.3102
vn -0.7768 -0.5796 0.2463
vn -0.7686 -0.6253 0.1352
vn -0.7773 -0.6288 -0.0211
vn -0.7581 -0.6258 -0.1836
vn -0.7555 -0.5877 -0.2896
vn -0.6697 0.6982 -0.2531
vn -0.6681 -0.6654 -0.3330
vn -0.5668 -0.6848 -0.4580
vn 0.4291 0.8179 -0.3834
vn 0.8326 -0.5538 0.0070
vn 0.8023 -0.5423 0.2493
vn 0.6609 -0.6171 0.4271
vn 0.4627 -0.6632 0.5883
vn 0.2280 -0.7623 0.6058
vn 0.6176 0.7251 0.3046
vn -0.0705 -0.6767 -0.7329
vn 0.1237 -0.7080 -0.6953
vn 0.0273 -0.6848 -0.7282
vn 0.3412 -0.7111 -0.6147
vn 0.2328 -0.6868 -0.6886
vn 0.4928 -0.7577 0.4278
vn 0.4378 -0.7232 0.5342
vn 0.5331 -0.7521 -0.3874
vn 0.6862 -0.7154 -0.1319
vn 0.5963 -0.7452 0.2983
vn 0.6413 -0.7604 0.1030
vn 0.5233 -0.8112 -0.2610
vn 0.4597 -0.7117 -0.5311
vn 0.0080 -0.4277 -0.9039
vn -0.1316 -0.7287 -0.6721
vn -0.1166 -0.7776 -0.6178
vn -0.1839 -0.7282 -0.6603
vn -0.1427 -0.6883 0.7112
vn -0.2746 -0.6885 0.6713
vn -0.4364 -0.6818 0.5871
vn -0.5689 -0.6620 0.4880
vn -0.6767 -0.6312 0.3791
vn -0.7762 -0.5877 0.2285
vn -0.7878 -0.5710 0.2310
vn -0.8093 -0.5841 0.0626
vn -0.8058 -0.5826 -0.1064
vn -0.7705 -0.5766 -0.2718
vn -0.7554 -0.6020 -0.2587
vn -0.6566 -0.6310 -0.4132
vn -0.5471 -0.6549 -0.5213
vn 0.7784 0.1000 -0.6197
vn 0.7845 0.0998 -0.6120
vn 0.8663 -0.4980 -0.0389
vn 0.8569 -0.4703 0.2113
vn 0.8294 -0.5583 -0.0199
vn 0.7678 -0.4956 0.4061
vn 0.5580 -0.5662 0.6067
vn 0.3850 -0.6343 0.6705
vn -0.5705 0.6494 -0.5028
vn -0.5645 0.6548 -0.5027
vn -0.3959 0.6602 -0.6383
vn -0.3853 0.6701 -0.6345
vn 0.3992 0.7383 -0.5436
vn 0.4021 0.7207 -0.5647
vn 0.5493 0.7758 -0.3104
vn 0.5630 0.7478 -0.3518
vn 0.1596 0.7380 -0.6556
vn 0.1527 0.7141 -0.6832
vn 0.1067 -0.7165 -0.6894
vn 0.1488 -0.7221 -0.6756
vn 0.3171 -0.7724 0.5504
vn -0.4044 -0.9143 0.0232
vn -0.4286 -0.9005 0.0735
vn 0.4917 -0.7955 0.3541
vn 0.5260 -0.8066 -0.2697
vn 0.4889 -0.7736 -0.4031
vn -0.1657 -0.7672 -0.6196
vn -0.1109 -0.7301 -0.6743
vn -0.1277 -0.3439 -0.9303
vn -0.2286 0.6772 -0.6994
vn -0.2355 0.6672 -0.7067
vn 0.4623 -0.7710 0.4379
vn 0.6043 0.7792 -0.1664
vn 0.6242 0.7580 -0.1894
vn 0.5255 -0.8101 -0.2599
vn 0.3332 0.7799 0.5298
vn 0.5282 0.7767 0.3432
vn -0.1691 0.7385 0.6527
vn -0.1583 0.7223 0.6732
vn -0.3012 0.6399 0.7070
vn -0.4047 0.6679 0.6246
vn -0.4087 0.6952 0.5913
vn -0.5342 0.6891 0.4896
vn -0.5322 0.6552 0.5362
vn -0.6527 0.6020 0.4599
vn -0.6683 0.6851 0.2899
vn -0.6786 0.6665 0.3087
vn -0.7823 0.5889 0.2031
vn -0.7731 0.6297 0.0758
vn -0.7491 0.6601 0.0566
vn -0.7614 0.6427 -0.0850
vn -0.7710 0.6321 -0.0783
vn -0.7505 0.6248 -0.2153
vn -0.6954 0.6315 -0.3430
vn -0.6116 0.6530 -0.4467
vn -0.6048 0.6596 -0.4463
vn 0.0839 -0.6917 0.7173
vn -0.5097 0.6656 -0.5452
vn -0.3528 0.6362 -0.6862
vn -0.3021 0.6808 -0.6672
vn 0.6235 0.7448 0.2380
vn 0.5584 0.7425 0.3701
vn 0.4804 0.7959 0.3685
vn 0.4212 0.7318 0.5358
vn 0.3935 0.7517 0.5292
vn 0.2528 0.7317 0.6330
vn 0.2541 0.7307 0.6337
vn -0.0137 0.6703 0.7420
vn -0.6957 0.6380 -0.3300
vn -0.6253 0.6974 -0.3501
vn -0.1257 0.7323 -0.6692
vn 0.0081 0.7234 -0.6904
vn -0.0135 0.6963 -0.7177
vn 0.2510 0.7762 -0.5783
vn 0.2685 0.7114 0.6495
vn 0.3733 0.6444 0.6674
vn 0.5900 0.8061 -0.0459
vn -0.1055 0.9944 0.0071
vn -0.1057 0.9944 0.0070
vn 0.6245 0.7760 0.0887
vn 0.6571 0.7511 0.0643
vn 0.4826 0.7339 0.4780
vn 0.4578 0.7507 0.4764
vn -0.0031 -0.7023 -0.7119
vn 0.2955 -0.7308 -0.6153
vn -0.1976 -0.6676 -0.7178
vn 0.5863 -0.8089 -0.0437
vn 0.5640 -0.8092 0.1645
vn 0.3758 -0.7480 -0.5470
vn -0.1400 -0.7258 -0.6735
vn 0.0928 -0.9957 0.0039
vn 0.1535 -0.9868 0.0510
vn -0.2022 0.7144 -0.6699
vn -0.1452 0.7880 -0.5983
vn 0.5817 0.7834 0.2191
vn 0.0759 0.7564 0.6497
vn 0.1210 0.7232 0.6800
vn 0.5865 -0.8082 0.0530
vn 0.4494 0.7950 -0.4075
vn 0.6919 -0.4349 -0.5763
vn -0.2874 -0.9542 -0.0832
vn -0.1958 -0.9773 -0.0813
vn -0.3957 -0.9169 -0.0515
vn -0.2934 -0.9530 -0.0762
vn -0.4087 -0.9091 -0.0811
vn -0.3660 -0.9249 -0.1032
vn -0.3758 -0.9201 -0.1102
vn -0.4056 -0.9095 -0.0913
vn -0.4195 -0.9076 -0.0160
vn -0.4157 -0.9019 0.1171
vn -0.3974 -0.9167 0.0431
vn -0.3533 -0.9262 0.1317
vn -0.3381 -0.9409 -0.0215
vn -0.2502 -0.9634 0.0966
vn -0.2529 -0.9674 0.0117
vn -0.1779 -0.9811 0.0755
vn -0.1895 -0.9817 0.0196
vn -0.1274 -0.9904 0.0535
vn -0.1315 -0.9904 0.0435
vn -0.0600 -0.9961 0.0650
vn -0.0859 -0.9960 0.0249
vn -0.0119 -0.9999 0.0088
vn 0.0213 -0.9987 0.0469
vn 0.2503 -0.9679 0.0217
vn 0.3143 -0.9478 0.0535
vn 0.4580 -0.8880 -0.0401
vn 0.4248 -0.9039 -0.0495
vn 0.6224 -0.7579 -0.1955
vn 0.4520 -0.8640 -0.2220
vn 0.0203 -0.5080 -0.8611
vn -0.1425 -0.2634 -0.9541
vn 0.8846 -0.0135 -0.4661
s 0
f 1//1 2//1 3//1
f 1//1 3//1 4//1
f 30//2 31//2 32//2
f 30//3 32//3 33//3
f 34//4 35//4 36//4
f 34//5 36//5 37//5
f 33//6 32//6 38//6
f 43//7 44//7 45//7
f 43//7 45//7 46//7
f 47//8 48//8 49//8
f 47//8 49//8 50//8
f 55//9 56//9 57//9
f 55//9 57//9 58//9
f 58//10 57//10 59//10
f 58//10 59//10 60//10
f 61//11 62//11 63//11
f 61//12 63//12 64//12
f 65//13 66//13 67//13
f 65//13 67//13 68//13
f 69//14 70//14 71//14
f 69//15 71//15 72//15
f 73//16 74//16 75//16
f 73//16 75//16 76//16
f 77//17 78//17 79//17
f 77//17 79//17 80//17
f 74//18 81//18 82//18
f 74//18 82//18 75//18
f 81//19 83//19 84//19
f 81//19 84//19 82//19
f 85//20 86//20 87//20
f 85//20 87//20 88//20
f 70//21 73//21 76//21
f 70//22 76//22 71//22
f 83//23 85//23 88//23
f 83//23 88//23 84//23
f 86//24 77//24 80//24
f 86//24 80//24 87//24
f 79//25 78//25 66//25
f 79//25 66//25 65//25
f 64//26 63//26 90//26
f 64//27 90//27 91//27
f 92//28 93//28 35//28
f 92//29 35//29 94//29
f 91//30 90//30 93//30
f 91//31 93//31 92//31
f 34//32 94//32 35//32
f 95//33 96//33 62//33
f 95//34 62//34 61//34
f 68//35 67//35 97//35
f 68//35 97//35 98//35
f 98//36 97//36 96//36
f 98//37 96//37 95//37
f 99//38 100//38 101//38
f 99//39 101//39 102//39
f 105//40 103//40 104//40
f 46//41 45//41 105//41
f 46//41 105//41 104//41
f 106//42 107//42 108//42
f 109//43 110//43 111//43
f 106//44 108//44 109//44
f 106//45 109//45 111//45
f 106//46 111//46 112//46
f 113//47 114//47 44//47
f 113//47 44//47 43//47
f 60//48 59//48 114//48
f 60//48 114//48 113//48
f 115//49 116//49 56//49
f 115//49 56//49 55//49
f 117//50 118//50 116//50
f 117//50 116//50 115//50
f 119//51 120//51 118//51
f 119//51 118//51 117//51
f 121//52 122//52 120//52
f 121//52 120//52 119//52
f 50//53 49//53 122//53
f 50//53 122//53 121//53
f 4//54 3//54 48//54
f 4//54 48//54 47//54
f 127//55 128//55 129//55
f 151//56 89//56 69//56 72//56
f 131//57 132//57 133//57
f 133//58 134//58 135//58
f 130//59 131//59 133//59
f 127//60 129//60 130//60
f 125//61 126//61 127//61
f 123//62 124//62 125//62
f 137//63 123//63 125//63
f 133//64 135//64 136//64
f 133//65 136//65 138//65
f 139//66 137//66 125//66
f 130//67 133//67 138//67
f 130//68 138//68 140//68
f 139//69 125//69 127//69
f 141//70 139//70 127//70
f 130//71 140//71 142//71
f 143//72 141//72 127//72
f 130//73 142//73 144//73
f 130//74 144//74 143//74
f 127//75 130//75 143//75
f 145//76 146//76 2//76
f 145//76 2//76 1//76
f 147//77 148//77 146//77
f 147//78 146//78 145//78
f 102//79 101//79 148//79
f 102//80 148//80 147//80
f 149//81 150//81 100//81
f 149//82 100//82 99//82
f 6//83 54//83 4//83
f 6//84 47//84 8//84
f 8//85 50//85 10//85
f 10//86 121//86 12//86
f 12//87 119//87 14//87
f 14//88 117//88 16//88
f 16//89 115//89 18//89
f 18//90 55//90 20//90
f 20//91 58//91 21//91
f 21//92 60//92 23//92
f 23//93 113//93 25//93
f 124//94 109//94 114//94
f 25//95 43//95 27//95
f 27//96 46//96 29//96
f 36//97 134//97 150//97
f 31//98 99//98 32//98
f 38//99 102//99 40//99
f 40//100 147//100 42//100
f 42//101 145//101 52//101
f 52//102 1//102 54//102
f 110//103 123//103 74//103
f 61//104 51//104 53//104
f 5//105 7//105 98//105
f 5//106 95//106 53//106
f 9//107 11//107 65//107
f 7//108 9//108 68//108
f 24//109 26//109 76//109
f 28//110 71//110 26//110
f 13//111 15//111 80//111
f 19//112 88//112 17//112
f 24//113 75//113 22//113
f 22//114 82//114 19//114
f 17//115 87//115 15//115
f 13//116 79//116 11//116
f 30//117 33//117 94//117
f 41//118 51//118 64//118
f 41//119 91//119 39//119
f 39//120 92//120 33//120
f 4//121 47//121 6//121
f 47//122 50//122 8//122
f 50//123 121//123 10//123
f 121//124 119//124 12//124
f 119//125 117//125 14//125
f 117//126 115//126 16//126
f 115//127 55//127 18//127
f 55//128 58//128 20//128
f 58//129 60//129 21//129
f 60//130 113//130 23//130
f 113//131 43//131 25//131
f 43//132 46//132 27//132
f 46//133 104//133 29//133
f 37//134 36//134 150//134
f 37//135 150//135 149//135
f 149//136 99//136 31//136
f 99//137 102//137 38//137
f 99//138 38//138 32//138
f 102//139 147//139 40//139
f 147//140 145//140 42//140
f 145//141 1//141 52//141
f 93//142 90//142 138//142
f 93//143 138//143 136//143
f 90//144 63//144 140//144
f 90//145 140//145 138//145
f 66//146 78//146 141//146
f 66//147 141//147 143//147
f 77//148 86//148 139//148
f 77//149 139//149 141//149
f 143//150 144//150 97//150
f 143//151 97//151 67//151
f 98//152 95//152 5//152
f 7//153 68//153 98//153
f 72//154 71//154 28//154
f 20//155 19//155 17//155
f 20//156 17//156 18//156
f 76//157 75//157 24//157
f 88//158 87//158 17//158
f 80//159 79//159 13//159
f 64//160 91//160 41//160
f 91//161 92//161 39//161
f 34//162 37//162 30//162
f 142//163 140//163 63//163
f 142//164 63//164 62//164
f 26//165 71//165 76//165
f 137//166 139//166 86//166
f 137//167 86//167 85//167
f 15//168 87//168 80//168
f 111//169 70//169 69//169
f 110//170 74//170 73//170
f 130//171 129//171 48//171
f 130//172 48//172 3//172
f 129//173 49//173 48//173
f 129//174 128//174 122//174
f 129//175 122//175 49//175
f 128//176 127//176 120//176
f 128//177 120//177 122//177
f 127//178 118//178 120//178
f 127//179 126//179 116//179
f 127//180 116//180 118//180
f 126//181 56//181 116//181
f 126//182 125//182 57//182
f 126//183 57//183 56//183
f 125//184 124//184 59//184
f 125//185 59//185 57//185
f 124//186 114//186 59//186
f 109//187 44//187 114//187
f 109//188 108//188 45//188
f 109//189 45//189 44//189
f 54//190 1//190 4//190
f 108//191 107//191 105//191
f 108//191 105//191 45//191
f 107//192 106//192 103//192
f 107//193 103//193 105//193
f 134//194 100//194 150//194
f 134//195 133//195 101//195
f 134//196 101//196 100//196
f 133//197 132//197 148//197
f 133//198 148//198 101//198
f 132//199 131//199 146//199
f 132//200 146//200 148//200
f 3//201 2//201 130//201
f 35//202 93//202 136//202
f 35//203 136//203 135//203
f 142//204 62//204 96//204
f 96//205 97//205 144//205
f 96//206 144//206 142//206
f 67//207 66//207 143//207
f 112//208 111//208 69//208
f 112//209 69//209 89//209
f 137//210 85//210 83//210
f 124//211 123//211 110//211
f 124//212 110//212 109//212
f 83//213 81//213 123//213
f 83//214 123//214 137//214
f 73//215 70//215 111//215
f 73//216 111//216 110//216
f 53//217 95//217 61//217
f 65//218 68//218 9//218
f 33//219 92//219 94//219
f 84//220 88//220 19//220
f 75//221 82//221 22//221
f 11//222 79//222 65//222
f 61//223 64//223 51//223
f 54//224 53//224 51//224
f 54//225 51//225 52//225
f 36//226 35//226 135//226
f 36//227 135//227 134//227
f 123//228 81//228 74//228
f 131//229 130//229 2//229
f 131//230 2//230 146//230
f 19//231 82//231 84//231
f 141//232 78//232 77//232
f 31//233 37//233 149//233
f 26//234 27//234 29//234
f 26//235 29//235 28//235
f 24//236 25//236 27//236
f 24//237 27//237 26//237
f 22//238 23//238 25//238
f 22//239 25//239 24//239
f 19//240 21//240 23//240
f 19//241 23//241 22//241
f 19//242 20//242 21//242
f 18//243 17//243 15//243
f 18//244 15//244 16//244
f 16//245 15//245 13//245
f 16//246 13//246 14//246
f 14//247 13//247 11//247
f 14//248 11//248 12//248
f 12//249 11//249 9//249
f 12//250 9//250 10//250
f 10//251 9//251 7//251
f 10//252 7//252 8//252
f 8//253 7//253 5//253
f 8//254 5//254 6//254
f 53//255 54//255 6//255
f 53//256 6//256 5//256
f 52//257 51//257 41//257
f 52//258 41//258 42//258
f 42//259 41//259 39//259
f 42//260 39//260 40//260
f 40//261 39//261 33//261
f 40//262 33//262 38//262
f 30//263 37//263 31//263
f 94//264 34//264 30//264
f 29//265 104//265 103//265 106//265 112//265 89//265 151//265 72//265 28//265
